# xmcd CD database file
#
# Track frame offsets:
#	150
#	14945
#	27687
#	42228
#	57834
#	70417
#	85681
#	101272
#	115925
#	130861
#	144166
#	158026
#	171427
#	183922
#	197229
#	209146
#	220677
#	233153
#	244584
#	256412
#	269826
#	285095
#	298997
#	314787
#	328979
#	342958
#
# Disc length: 4707 seconds
#
# Revision: 0
# Processed by: cddbd v1.5.1PL2 Copyright (c) Steve Scherf et al.
# Submitted via: CDex 1.50
#
DISCID=9e12611a
DTITLE=Various Artist - Blues, Blues Christmas - Disc 2
DYEAR=2005
DGENRE=Blues
TTITLE0=Bo Carter - Santa Claus
TTITLE1=Black Ace - Christmas Time (Beggin' Santa Claus)
TTITLE2=Mary Harris - Happy New Year Blues
TTITLE3=Charlie Jordan - Christmas Christmas Blues
TTITLE4=Johnny Otis Orchestra - Happy New Year, Baby
TTITLE5=Little Esther and Mel Walker with Johnny Otis - Faraway Christmas Blues
TTITLE6=Sonny Boy Williamson I - Christmas Morning Blues
TTITLE7=Leroy Carr - Christmas In Jail (Ain't That A Pain)
TTITLE8=Kansas City Kitty - Christmas Mornin' Blues
TTITLE9=Rev. J.M. Gates - Did You Spend Christmas Day In Jail?
TTITLE10=Rev. J.M. Gates - Death Might Be Your Santa Claus
TTITLE11=Blind Lemon Jefferson - Happy New Year Blues
TTITLE12=Smokey Hogg - New Year's Eve Blues
TTITLE13=Larry Darnell - Christmas Blues
TTITLE14=Sons Of Heaven - When Jesus Was Born
TTITLE15=J.B. Summers with Doc Bagby's Orchestra - I Want A Present For Christmas
TTITLE16=Sonny Parker with Lionel Hampton Orchestra - Boogie Woogie Santa Claus
TTITLE17=Roy Milton Solid Senders - New Year's Resolution Blues
TTITLE18=Sonny Boy Williamson II - Sonny Boy's Christmas Blues
TTITLE19=Roosevelt Sykes - Let Me Hang My Stockings In Your Christmas Tree
TTITLE20=Elzadie Robinson - The Santa Claus Crave
TTITLE21=Walter Davis - Santa Claus Bues
TTITLE22=Victoria Spivey - Christmas Morning Blues
TTITLE23=Boll Weavil (Willie McNeil) - Christmas Time Blues
TTITLE24=Floyd Dixon with Johnny Moore's Three Blazers - Empty Stocking Blues
TTITLE25=Mabel Scott with Les Welch and His Orchestra - Boogie-Woogie Santa Claus
EXTD=YEAR: 2005
EXTT0=
EXTT1=
EXTT2=
EXTT3=
EXTT4=
EXTT5=
EXTT6=
EXTT7=
EXTT8=
EXTT9=
EXTT10=
EXTT11=
EXTT12=
EXTT13=
EXTT14=
EXTT15=
EXTT16=
EXTT17=
EXTT18=
EXTT19=
EXTT20=
EXTT21=
EXTT22=
EXTT23=
EXTT24=
EXTT25=
PLAYORDER=
